<svg height="301" width="256" viewBox="0 0 72 72" xmlns="http://www.w3.org/2000/svg"><path d="m66 36-10.6765 5.1816 6.6584 9.8247-11.8401-.8639.8638 11.8399-9.8243-6.6587-5.1813 10.6764-5.1816-10.6765-9.8247 6.6584.8639-11.8401-11.8399.8638 6.6587-9.8243-10.6764-5.1813 10.6765-5.1816-6.6584-9.8247 11.8401.8639-.8638-11.8399 9.8243 6.6587 5.1813-10.6764 5.1816 10.6765 9.8247-6.6584-.8639 11.8401 11.8399-.8638-6.6587 9.8243z" fill="#fcea2b"/><g style="fill:none;stroke:#000;stroke-linecap:round;stroke-linejoin:round;stroke-miterlimit:10;stroke-width:2"><circle cx="36" cy="35.95" r="19.8276"/><path d="m66 36-10.6765 5.1816 6.6584 9.8247-11.8401-.8639.8638 11.8399-9.8243-6.6587-5.1813 10.6764-5.1816-10.6765-9.8247 6.6584.8639-11.8401-11.8399.8638 6.6587-9.8243-10.6764-5.1813 10.6765-5.1816-6.6584-9.8247 11.8401.8639-.8638-11.8399 9.8243 6.6587 5.1813-10.6764 5.1816 10.6765 9.8247-6.6584-.8639 11.8401 11.8399-.8638-6.6587 9.8243z"/></g></svg>